<svg width="26" height="26" viewBox="0 0 26 26" fill="none" xmlns="http://www.w3.org/2000/svg">
<path d="M9.37206 19.9535C9.25113 19.9535 9.1423 19.9293 9.02137 19.8809C8.68276 19.7479 8.46509 19.4093 8.46509 19.0465V11.7907C8.46509 11.2949 8.87625 10.8837 9.37206 10.8837C9.86788 10.8837 10.279 11.2949 10.279 11.7907V16.8577L11.1497 15.987C11.5004 15.6363 12.0809 15.6363 12.4316 15.987C12.7823 16.3377 12.7823 16.9181 12.4316 17.2688L10.013 19.6874C9.84369 19.8567 9.60183 19.9535 9.37206 19.9535Z" fill="#292D32"/>
<path d="M9.37139 19.9534C9.14162 19.9534 8.91185 19.8687 8.73046 19.6873L6.31185 17.2687C5.96115 16.918 5.96115 16.3376 6.31185 15.9869C6.66255 15.6362 7.24301 15.6362 7.59371 15.9869L10.0123 18.4055C10.363 18.7562 10.363 19.3366 10.0123 19.6873C9.83092 19.8687 9.60115 19.9534 9.37139 19.9534Z" fill="#292D32"/>
<path d="M16.6279 26H9.37209C2.80558 26 0 23.1944 0 16.6279V9.37209C0 2.80558 2.80558 0 9.37209 0H15.4186C15.9144 0 16.3256 0.411163 16.3256 0.906977C16.3256 1.40279 15.9144 1.81395 15.4186 1.81395H9.37209C3.79721 1.81395 1.81395 3.79721 1.81395 9.37209V16.6279C1.81395 22.2028 3.79721 24.186 9.37209 24.186H16.6279C22.2028 24.186 24.186 22.2028 24.186 16.6279V10.5814C24.186 10.0856 24.5972 9.67442 25.093 9.67442C25.5888 9.67442 26 10.0856 26 10.5814V16.6279C26 23.1944 23.1944 26 16.6279 26Z" fill="#292D32"/>
<path d="M25.0929 11.4884H20.2557C16.1198 11.4884 14.5115 9.87999 14.5115 5.74417V0.906962C14.5115 0.544171 14.7291 0.205566 15.0678 0.0725431C15.4064 -0.0725732 15.7933 0.0120779 16.0594 0.266031L25.7338 9.94045C25.9878 10.1944 26.0724 10.5935 25.9273 10.9321C25.7822 11.2707 25.4557 11.4884 25.0929 11.4884ZM16.3254 3.0958V5.74417C16.3254 8.86417 17.1357 9.6744 20.2557 9.6744H22.904L16.3254 3.0958Z" fill="#292D32"/>
</svg>
