<svg width="42" height="41" viewBox="0 0 42 41" fill="none" xmlns="http://www.w3.org/2000/svg">
<path d="M27.6371 41H27.3707C18.2735 41 13.8888 37.5068 13.1307 29.6821C13.0487 28.8637 13.6634 28.1251 14.5239 28.0453C15.3435 27.9654 16.1221 28.5842 16.2041 29.4026C16.7983 35.6704 19.8307 38.0058 27.3912 38.0058H27.6576C35.9967 38.0058 38.9471 35.1315 38.9471 27.0073V13.9927C38.9471 5.86854 35.9967 2.99415 27.6576 2.99415H27.3912C19.7897 2.99415 16.7573 5.36952 16.2041 11.757C16.1016 12.5754 15.3845 13.1942 14.5239 13.1144C13.6634 13.0545 13.0487 12.316 13.1102 11.4976C13.8068 3.55306 18.212 0 27.3707 0H27.6371C37.6973 0 42 4.19182 42 13.9927V27.0073C42 36.8082 37.6973 41 27.6371 41Z" fill="#292D32"/>
<path d="M27.1424 21.9971H3.82576C2.9857 21.9971 2.28906 21.3184 2.28906 20.5C2.28906 19.6816 2.9857 19.003 3.82576 19.003H27.1424C27.9825 19.003 28.6791 19.6816 28.6791 20.5C28.6791 21.3184 27.9825 21.9971 27.1424 21.9971Z" fill="#292D32"/>
<path d="M8.39547 28.6842C8.00618 28.6842 7.61688 28.5445 7.30954 28.2451L0.445641 21.5582C-0.148547 20.9793 -0.148547 20.0212 0.445641 19.4423L7.30954 12.7553C7.90373 12.1764 8.88722 12.1764 9.4814 12.7553C10.0756 13.3342 10.0756 14.2923 9.4814 14.8712L3.70343 20.5002L9.4814 26.1292C10.0756 26.7081 10.0756 27.6662 9.4814 28.2451C9.19455 28.5445 8.78477 28.6842 8.39547 28.6842Z" fill="#292D32"/>
</svg>
