<svg width="23" height="25" viewBox="0 0 23 25" fill="none" xmlns="http://www.w3.org/2000/svg">
<path d="M21.8064 6.37205C21.7832 6.37205 21.7483 6.37205 21.7134 6.37205C15.5623 5.75577 9.42276 5.52321 3.34135 6.13949L0.969272 6.37205C0.480902 6.41856 0.0506715 6.06972 0.00416007 5.58135C-0.0423513 5.09298 0.306484 4.67438 0.783226 4.62787L3.15531 4.39531C9.34136 3.76741 15.6088 4.01159 21.8878 4.62787C22.3646 4.67438 22.7134 5.10461 22.6669 5.58135C22.632 6.03484 22.2483 6.37205 21.8064 6.37205Z" fill="#292D32"/>
<path d="M7.27285 5.19765C7.22634 5.19765 7.17983 5.19765 7.12169 5.18602C6.65658 5.10463 6.331 4.65114 6.41239 4.18603L6.66821 2.66278C6.85425 1.5465 7.11006 0 9.81931 0H12.8658C15.5867 0 15.8425 1.60464 16.017 2.67441L16.2728 4.18603C16.3542 4.66277 16.0286 5.11626 15.5635 5.18602C15.0867 5.26742 14.6332 4.94184 14.5635 4.47672L14.3077 2.9651C14.1449 1.95348 14.11 1.75581 12.8774 1.75581H9.83094C8.59843 1.75581 8.57517 1.9186 8.40076 2.95347L8.13332 4.4651C8.06355 4.89533 7.69146 5.19765 7.27285 5.19765Z" fill="#292D32"/>
<path d="M15.0747 25H7.60958C3.55146 25 3.38867 22.7558 3.26076 20.9419L2.50495 9.2326C2.47007 8.75585 2.84216 8.33726 3.3189 8.30238C3.80727 8.27912 4.21425 8.63959 4.24913 9.11633L5.00494 20.8256C5.13285 22.593 5.17936 23.2558 7.60958 23.2558H15.0747C17.5165 23.2558 17.563 22.593 17.6793 20.8256L18.4351 9.11633C18.47 8.63959 18.8886 8.27912 19.3654 8.30238C19.8421 8.33726 20.2142 8.74423 20.1793 9.2326L19.4235 20.9419C19.2956 22.7558 19.1328 25 15.0747 25Z" fill="#292D32"/>
<path d="M13.272 18.6046H9.39994C8.92318 18.6046 8.52783 18.2092 8.52783 17.7325C8.52783 17.2557 8.92318 16.8604 9.39994 16.8604H13.272C13.7488 16.8604 14.1441 17.2557 14.1441 17.7325C14.1441 18.2092 13.7488 18.6046 13.272 18.6046Z" fill="#292D32"/>
<path d="M14.2485 13.9534H8.43459C7.95785 13.9534 7.5625 13.5581 7.5625 13.0813C7.5625 12.6046 7.95785 12.2092 8.43459 12.2092H14.2485C14.7253 12.2092 15.1206 12.6046 15.1206 13.0813C15.1206 13.5581 14.7253 13.9534 14.2485 13.9534Z" fill="#292D32"/>
</svg>
